<svg id="Group_35" data-name="Group 35" xmlns="http://www.w3.org/2000/svg" width="17.819" height="20.953" viewBox="0 0 17.819 20.953">
  <g id="Group_34" data-name="Group 34">
    <g id="_4Mm6LF" data-name="4Mm6LF">
      <g id="Group_33" data-name="Group 33">
        <path id="Path_25" data-name="Path 25" d="M-3773.791,38.02c0-.728,0-1.4,0-2.069a3.116,3.116,0,0,1,3.138-3.238,3.1,3.1,0,0,1,3.1,3.217c0,.673,0,1.346,0,2.09h2.424c1.631,0,2.3.6,2.432,2.207q.469,5.634.932,11.266a1.919,1.919,0,0,1-1.947,2.165q-6.952.017-13.9,0a1.894,1.894,0,0,1-1.957-2.147q.465-5.869.966-11.736a1.928,1.928,0,0,1,1.944-1.754C-3775.716,38.01-3774.778,38.02-3773.791,38.02Zm5.384-.024a21.73,21.73,0,0,0-.022-2.659,2.226,2.226,0,0,0-2.2-1.828,2.237,2.237,0,0,0-2.271,1.808,20.751,20.751,0,0,0-.024,2.678Zm1.488,2.427a1.036,1.036,0,0,0-1.032-1.009,1.029,1.029,0,0,0-1.023,1.063,1.05,1.05,0,0,0,1.054.991A1.051,1.051,0,0,0-3766.919,40.423Zm-5.445,0a1.023,1.023,0,0,0-1.02-1.014,1.025,1.025,0,0,0-1.025,1.012,1.04,1.04,0,0,0,1.046,1.044A1.039,1.039,0,0,0-3772.364,40.426Z" transform="translate(3779.571 -32.713)" fill="#242d2d"/>
      </g>
    </g>
  </g>
</svg>
