<svg xmlns="http://www.w3.org/2000/svg" width="549.143" height="99.013" viewBox="0 0 549.143 99.013">
  <g id="Group_32" data-name="Group 32" transform="translate(0 0)">
    <g id="Group_31" data-name="Group 31">
      <g id="Group_28" data-name="Group 28">
        <path id="Path_9" data-name="Path 9" d="M-4443.865,112.375c-2.3,0-4.332-.748-4.937-2.968l-15.988-64.437-.035-.126h-2.752l-.034.126-15.232,63.015c-.841,3.15-3.706,4.389-6.966,4.389h-1.453l0,1.137,0,.061,0,.182,0,.168h17.707v-1.548h-3.7c-1.455,0-2.733-.054-3.186-.507a4.144,4.144,0,0,1-.8-4.029l4.684-18.553h14.277l.042.163,4.039,18.123a4.445,4.445,0,0,1-.784,3.871c-.854,1.108-2.146.932-3.543.932h-1.008v1.548h21.482v-1.548Zm-32.3-24.693,6.738-28.673.035,0,.027,0,5.3,23.468,1.351,5.208Z" transform="translate(4491.263 -39.446)" fill="#e95a29"/>
        <path id="Path_10" data-name="Path 10" d="M-4393.041,88.546a.086.086,0,0,0-.085.085c-.04,2.531-.087,4.611-.1,4.84-.469,7-2.406,10.241-4.166,12.222a12.535,12.535,0,0,1-9.013,4.074c-3.294,0-5.768-.911-7.356-3.737a23.633,23.633,0,0,1-2.132-5.19c-1.572-5.681-1.98-21.252-1.98-21.252h26.919l0-.024c-.018-.588-.031-1.183-.044-1.757-.1-4.093-.189-11.188-1.253-15.022a13.779,13.779,0,0,0-5.289-8.008c-1.994-1.4-5.981-2.474-9.263-2.691-4.9-.325-12.186,3.738-15.554,10.347a44.8,44.8,0,0,0-3.362,13.131c-.9,11.365-.065,21.4,4.389,28.18,3.312,5.04,8.278,7.472,14.4,7.472h.1c4.181-.019,7.544-1.164,9.985-3.788,5.913-6.349,5.251-14.021,5.314-18.8a.086.086,0,0,0-.086-.085Zm-24.669-12.237c.126-1.94.243-7,.471-8.85.419-3.436,1.093-7.056,3.169-10.253a8.231,8.231,0,0,1,2.782-2.7,6.89,6.89,0,0,1,3.48-.932,7.588,7.588,0,0,1,1.966.265,6.676,6.676,0,0,1,4.246,3.79,23.461,23.461,0,0,1,2.074,8.724c.169,1.994.241,7.261.31,9.232.027.75.055,1.655.086,2.418h-18.683S-4417.76,77.1-4417.71,76.309Z" transform="translate(4530.324 -35.119)" fill="#e95a29"/>
        <path id="Path_11" data-name="Path 11" d="M-4432.774,61.06V59.412h-8.681c-5.987,0-9.764-12.749-2.132-12.891,4.451-.083,4.571,1.589,7.022,1.612,3.054.026,4.483-1.516,4.614-3.537l0-.042a2.668,2.668,0,0,0-2.391-2.985,14.41,14.41,0,0,0-1.72-.1,15.876,15.876,0,0,0-2.634.222c-4.126.7-14.745,3.2-14.745,14.429,0,2.456-2.5,3.318-4.951,3.318h-3.28l0,1.637h7.838c0,2.208-.03,33.42-.044,35.587h0v14.647c0,2.119-1.733,3.075-3.853,3.089l-.171,0v1.532h15.749v-1.5l-.1,0c-.941-.029-2.133.058-2.832-.572a3.076,3.076,0,0,1-1.013-2.619c0-1.172.079-47.4.085-50.161Z" transform="translate(4508.988 -41.468)" fill="#e95a29"/>
        <path id="Path_12" data-name="Path 12" d="M-4420.578,94.421a.167.167,0,0,0-.167.168c0,1.756,0,3.9,0,4.714,0,2.515-.063,5.115-.078,7.672-.038,6.255-2.279,8.828-4.413,8.828a4.36,4.36,0,0,1-4.024-3.351,36.132,36.132,0,0,1-.441-5.691c-.006-8.988-.035-46.005-.025-46.09,1.242-.008,10.87.01,10.87.01l-.01-1.633h-10.86V42.285l-.126-.035-.284-.077-.192-.053-.023.2c-.467,3.993-1.865,8.121-7.047,9.06l-.14.026v7.617h-7.357V60.67h7.424c.009.123,0,35.713.013,42.206v.241a13.3,13.3,0,0,0,.247,3.123c1.252,5.145,6.513,10.9,12.245,10.9,1.8,0,3.253-.988,4.326-2.939a12.619,12.619,0,0,0,1.4-5.835c.106-3.193.119-9.21.13-12.352,0-.437,0-.881.007-1.42a.17.17,0,0,0-.168-.169Z" transform="translate(4519.034 -41.077)" fill="#e95a29"/>
        <path id="Path_13" data-name="Path 13" d="M-4336.94,106.62c-.815-.819-1.267-1.062-1.273-2.218-.015-3.382-.027-10.31-.033-14.175v-.193h-.011c-.01-8.02,0-17.518.058-23.889a13.717,13.717,0,0,0-1.621-6.81,17.016,17.016,0,0,0-4.526-5.209,8.32,8.32,0,0,0-5.269-1.941,7.568,7.568,0,0,0-2.4.339c-7.781,2.576-11.341,11.2-12.642,14.02V53.974h-15.488l-.006.185-.01.229,0,.846-.009.2h3.278a4.375,4.375,0,0,1,4.372,4.37V104.29c0,2.386-1.941,3.671-4.328,3.687l-.191,0v1.5h16.916v-1.458l-.187-.006c-1.141-.035-2.208.058-3-.761a4.334,4.334,0,0,1-1.235-3.048c0-3.075,0-9.9-.007-13.985v-.192h-.014c0-5.692-.025-9.507-.094-13.129a26.257,26.257,0,0,1,1.954-10.807c1.321-3.163,4.382-7.814,7.723-10.214,4.506-3.238,8.884-.624,8.884,7.675,0,7.376.041,17.865.045,26.476h-.018v.193c0,4.119-.008,10.991-.015,14.02-.005,2.394-1.957,3.78-4.351,3.78h-.232v1.457h16.984v-1.575l-.19,0A4.345,4.345,0,0,1-4336.94,106.62Zm-12.7-54.242h0Z" transform="translate(4557.8 -35.049)" fill="#e95a29"/>
        <path id="Path_14" data-name="Path 14" d="M-4251.628,107.276a3.746,3.746,0,0,1-1.083-2.873c-.015-3.382-.029-10.31-.034-14.175v-.193h-.009c-.011-8.02,0-17.518.056-23.889a13.711,13.711,0,0,0-1.62-6.81,16.963,16.963,0,0,0-4.528-5.209,8.311,8.311,0,0,0-5.266-1.941,7.56,7.56,0,0,0-2.4.339c-7.783,2.576-11.34,11.2-12.644,14.02V53.974h-15.488l-.006.185-.008.229-.006.144-.007.9h3.278c2.409,0,4.37,1.258,4.37,3.668V104.29c0,2.386-1.941,3.639-4.327,3.655l-.191,0v1.537h16.916v-1.458l-.186-.006c-1.143-.035-2.31-.043-3.105-.862a4.015,4.015,0,0,1-1.136-2.947c0-3.075.005-9.9-.007-13.985v-.192h-.013c0-5.692-.027-9.507-.1-13.129a26.258,26.258,0,0,1,1.955-10.807c1.322-3.163,4.383-7.814,7.724-10.214,4.506-3.238,8.883-.624,8.883,7.675,0,7.376.042,17.865.047,26.476h-.02v.193c0,4.119-.008,10.991-.014,14.02-.005,2.394-1.957,3.78-4.351,3.78h-.23v1.457h16.984v-1.436l-.192,0C-4249.541,108.035-4250.814,108.093-4251.628,107.276Zm-12.513-54.9h0Z" transform="translate(4609.013 -35.049)" fill="#e95a29"/>
        <path id="Path_15" data-name="Path 15" d="M-4367.617,60.922c-.362-3.609-3.128-5.51-4.958-6.78a10.134,10.134,0,0,0-5.787-1.941c-3.6.157-7.655,5.46-8.936,9.325l.226-7.536h-15.488l-.007.185-.008.229-.006.142-.006.9h3.277a4.374,4.374,0,0,1,4.369,4.37v44.486c0,2.386-1.94,3.639-4.326,3.655l-.19,0V109.5h16.916v-1.457l-.187-.006a4.355,4.355,0,0,1-3-1.324,3.146,3.146,0,0,1-1.237-2.486c0-3.073-.017-26.736-.017-37.138,0-4.584,4.72-12.581,7.672-12.581,1.974,0,4.245.472,4.479,2.862.282,2.885-1.1,7.16,3.609,7.16A3.494,3.494,0,0,0-4367.617,60.922Z" transform="translate(4544.375 -35.043)" fill="#e95a29"/>
        <path id="Path_16" data-name="Path 16" d="M-4307.4,82.049a44.142,44.142,0,0,1-2.293,14.464c-2.332,6.417-6.806,10.6-13.071,13.307-8.542,3.7-17.832-1.282-21.988-7.587a32.591,32.591,0,0,1-5.068-15.213c-.5-5.294-.634-10.611.743-15.756,5.125-19.159,17.931-18.7,19.948-18.842,10.141-.707,16.958,5.433,20.034,16.466a32.891,32.891,0,0,1,1.006,4.958C-4307.765,76.569-4307.616,79.313-4307.4,82.049Zm-34.052-2.507c.38,14.72,3.585,22.752,6.1,26.165,2.372,3.225,5.592,3.909,9.729,3.252a7.353,7.353,0,0,0,5.876-4.444c2.3-4.5,3.217-11.126,3.109-26.717-.031-4.749-.267-14.925-7.317-21.677-3.816-3.655-9.969-2.512-13.062,1.292C-4341.441,63.373-4341.625,72.7-4341.447,79.542Z" transform="translate(4575.773 -34.94)" fill="#e95a29"/>
        <path id="Path_17" data-name="Path 17" d="M-4278.721,81.971a44.082,44.082,0,0,1-2.292,14.464c-2.332,6.417-6.807,10.6-13.071,13.307-8.543,3.7-17.832-1.282-21.989-7.587a32.63,32.63,0,0,1-5.069-15.213c-.5-5.294-.631-10.609.745-15.756,5.125-19.159,17.929-18.7,19.946-18.842,10.142-.707,16.96,5.433,20.035,16.466a32.815,32.815,0,0,1,1.008,4.958C-4279.091,76.491-4278.941,79.237-4278.721,81.971Zm-34.051-2.507c.381,14.72,3.587,22.752,6.1,26.165,2.372,3.225,5.591,3.909,9.731,3.252a7.353,7.353,0,0,0,5.875-4.444c2.3-4.5,3.216-11.126,3.111-26.717-.032-4.749-.269-14.925-7.319-21.677-3.815-3.654-9.969-2.512-13.06,1.292C-4312.765,63.295-4312.95,72.618-4312.772,79.464Z" transform="translate(4592.95 -34.987)" fill="#e95a29"/>
      </g>
      <g id="Group_30" data-name="Group 30" transform="translate(373.645 0.221)">
        <g id="Group_29" data-name="Group 29" transform="translate(40.182)">
          <path id="Path_18" data-name="Path 18" d="M-4224.527,51.069h.016a4.793,4.793,0,0,0,3.346-1.353,4.487,4.487,0,0,0,1.4-3.241,4.8,4.8,0,0,0-4.644-4.869h-.047a4.606,4.606,0,0,0-3.3,1.4,4.765,4.765,0,0,0-1.382,3.355A4.615,4.615,0,0,0-4224.527,51.069Zm.129-.174c-.036,0-.075,0-.113,0h-.015C-4224.483,50.9-4224.442,50.894-4224.4,50.894Zm-.058-9.117.046,0c-.048,0-.094,0-.141,0C-4224.518,41.78-4224.487,41.777-4224.456,41.777Z" transform="translate(4234.442 -41.606)" fill="#e95a29"/>
          <path id="Path_19" data-name="Path 19" d="M-4215.6,106.339a4.345,4.345,0,0,1-1.236-3.048c0-3.07,0-9.89-.006-13.985v-.192h-.013c0-5.054-.095-13.048-.1-13.128l.011-9.6V53.2h-15.487l-.007.185,0,.133-.01.238-.006,1.044h3.278a4.376,4.376,0,0,1,4.372,4.37v44.2c0,2.386-1.942,3.921-4.328,3.937l-.19,0V108.7h16.915v-1.457l-.187-.006A4.015,4.015,0,0,1-4215.6,106.339Z" transform="translate(4232.454 -34.664)" fill="#e95a29"/>
        </g>
        <path id="Path_20" data-name="Path 20" d="M-4220.268,85.054a.117.117,0,0,0-.119.106c-.143,1.17-1.2,11.76-2.993,16.676-2.271,6.23-7.46,10.35-14.09,10.35h-1.444c-1.54,0-4.148-1.043-4.148-3.622V49.872c0-2.138,1.732-3.449,3.87-3.449h2.564V44.984h-20.948l0,.168c0,.046,0,.083,0,.11v.064h0V46.3l-.005.174h.176c1.213,0,2.255.155,3.068.155,3.693,0,3.514,1.517,3.514,3.308v54.95h-.031v3.754c0,4.09-4.261,3.558-6.552,3.574l-.169,0v1.469h38.137V85.174a.122.122,0,0,0-.122-.12Z" transform="translate(4257.584 -39.583)" fill="#e95a29"/>
        <path id="Path_21" data-name="Path 21" d="M-4155.65,88.912l-.06,0c.032,0,.063,0,.092,0Z" transform="translate(4318.604 -13.273)" fill="#e95a29"/>
        <path id="Path_22" data-name="Path 22" d="M-4183.65,55.458h6.3v-1.45l-.2,0c-1.471-.013-4.71-.024-7.568-.035-1.49,0-3.164-.016-4.238-.022a1.138,1.138,0,0,1-.491-.117,19.126,19.126,0,0,0-8.452-1.791,13.242,13.242,0,0,0-6.02,1.479,17.8,17.8,0,0,0-4.909,3.758,22.5,22.5,0,0,0-5.5,10.337,42.659,42.659,0,0,0-.627,12.955,26.293,26.293,0,0,0,4.3,12.536,16.477,16.477,0,0,0,3.15,3.411c-.117.066-.246.131-.377.2a17.119,17.119,0,0,0-5.349,3.585,6.433,6.433,0,0,0-1.842,4.76,4.866,4.866,0,0,0,1.783,3.5,15.188,15.188,0,0,0,3.247,1.845c.156.074.314.146.469.219a7.244,7.244,0,0,0,1.566.454c.163.034.33.069.5.109-.084.059-.161.117-.238.173-.331.241-.616.449-.9.667a26.639,26.639,0,0,0-4.879,4.816,18.706,18.706,0,0,0-3.137,6.114,7.987,7.987,0,0,0,2.937,8.925,12.316,12.316,0,0,0,6.855,2.223c.661.03,1.323.046,1.965.046a34.8,34.8,0,0,0,9.078-1.15,29.6,29.6,0,0,0,8.418-3.751,20.651,20.651,0,0,0,6.967-7.237,19.883,19.883,0,0,0,2.409-9.725,7.529,7.529,0,0,0-.58-3.484,6.18,6.18,0,0,0-4.763-3.553,31.536,31.536,0,0,0-5.448-.641c-1.133-.034-2.346-.048-3.934-.048q-.975,0-1.945,0c-.648,0-1.3,0-1.943,0-.937,0-1.708-.006-2.434-.016l-.148,0a21.629,21.629,0,0,1-7.4-.971c-1.808-.683-2.271-1.572-2.47-2.272a3.447,3.447,0,0,1,2.233-4.284,17.761,17.761,0,0,0,1.885,1.238,15.936,15.936,0,0,0,7.838,2.168,13.394,13.394,0,0,0,5.224-1.051c5.585-2.35,9.215-5.95,11.1-11a32.781,32.781,0,0,0,1.938-11.9,50.536,50.536,0,0,0-.581-6.741,26.3,26.3,0,0,0-.854-4.085,20.057,20.057,0,0,0-4.843-8.735C-4186.5,55.946-4184.415,55.458-4183.65,55.458Zm-22.429,56.117a10.732,10.732,0,0,1,2.7-.7,26.411,26.411,0,0,1,4.772-.366,40.9,40.9,0,0,1,8.728.863,6.664,6.664,0,0,1,4.266,2.849,7.359,7.359,0,0,1,.581,5.184c-1,5.28-3.666,9.148-7.923,11.493a12.744,12.744,0,0,1-6.129,1.58,11.036,11.036,0,0,1-6.494-2.024,11.824,11.824,0,0,1-4.38-6.517c-.968-3.313-1.4-6.385-.213-8.98C-4209.505,113.489-4208.3,112.655-4206.079,111.575Zm8.554-11.322-.051,0c.025,0,.051,0,.08,0Zm10.2-16.69c-.187,4.915-1.014,8.516-2.675,11.679-1.257,2.39-2.821,3.654-4.921,3.978a9.017,9.017,0,0,1-1.383.11,7.93,7.93,0,0,1-6.532-3.583,22.816,22.816,0,0,1-3.743-9.317c-.028-.138-.057-.275-.085-.413a26.167,26.167,0,0,1-.519-3.043c-.048-.528-.1-1.054-.145-1.578-.237-2.555-.461-4.966-.508-6.973-.148-6.257.5-10.947,2.113-15.208a13.028,13.028,0,0,1,1.479-2.811,6.954,6.954,0,0,1,5.7-3.083,7.475,7.475,0,0,1,5.024,2.051,14.783,14.783,0,0,1,3.827,6.3A38.937,38.937,0,0,1-4187.507,73l.025.6C-4187.339,76.871-4187.194,80.252-4187.322,83.563Z" transform="translate(4281.644 -35.356)" fill="#e95a29"/>
        <path id="Path_23" data-name="Path 23" d="M-4149.183,113.166a4.341,4.341,0,0,1-1.266-3.062c-.012-3.383-.013-10.312-.013-14.176v-.193h-.011c0-8.02.021-17.518.092-23.887a13.716,13.716,0,0,0-1.61-6.815,17,17,0,0,0-4.517-5.216,8.31,8.31,0,0,0-5.265-1.949c-7.742,0-12.975,9.276-15.069,14.338l.017-29.894v-.193h-.191l-15.108-.022-.186,0-.009.187-.008.227-.005.144-.008.9h.2l3.077,0a4.144,4.144,0,0,1,4.365,4.1l-.046,48.222-.022,14.063c0,2.387-1.948,3.917-4.334,3.93l-.189,0,0,.612v.923h.194l16.528.026h.194v-1.6l-.187,0a4.03,4.03,0,0,1-3-.907,4.347,4.347,0,0,1-1.23-3.051c.007-3.073.02-9.9.016-13.983V95.7h-.015c.011-5.694-.01-8.137-.075-11.76-.062-3.548.014-7.992,1.742-11.537,2.146-4.4,6.359-12.637,12.714-12.637,2.13,0,3.288.705,3.639,3.279a46.563,46.563,0,0,1,.485,6.206c.022,7.376.016,17.865.008,26.476h-.02v.193c-.009,4.119-.025,10.99-.037,14.02-.008,2.394-1.96,3.917-4.354,3.913h-.231v1.6h.192l16.6.026h.194V113.9l-.192,0C-4147.286,113.881-4148.368,113.983-4149.183,113.166Zm-12.62-55.105h.029l.048,0Z" transform="translate(4296.663 -41.314)" fill="#e95a29"/>
        <path id="Path_24" data-name="Path 24" d="M-4139.141,94.387a.167.167,0,0,0-.167.168c0,1.756,0,3.9,0,4.714,0,2.515-.062,5.117-.078,7.672-.037,6.255-2.279,8.828-4.412,8.828a4.358,4.358,0,0,1-4.024-3.351,36,36,0,0,1-.441-5.691c-.006-8.986-.036-45.865-.025-45.949,1.241-.008,10.87.011,10.87.011l-.01-1.634h-10.859v-16.9l-.127-.035-.284-.077-.192-.053-.024.2c-.467,3.993-1.866,8.121-7.046,9.06l-.141.027v7.757h-9.1v1.649h9.168c.01.123,0,35.572.013,42.066v.241a13.347,13.347,0,0,0,.246,3.123c1.253,5.145,6.515,10.9,12.247,10.9,1.8,0,3.25-.988,4.326-2.939a12.638,12.638,0,0,0,1.4-5.835c.107-3.192.118-9.21.13-12.35,0-.438,0-.883,0-1.421a.167.167,0,0,0-.168-.17Z" transform="translate(4312.916 -41.318)" fill="#e95a29"/>
      </g>
    </g>
  </g>
</svg>
