<svg xmlns="http://www.w3.org/2000/svg" width="127.225" height="54.895" viewBox="0 0 127.225 54.895">
  <path id="Path_317" data-name="Path 317" d="M90.74,633.569c23.476.033,28.113-2.662,37.75-22.867,11.494-24.1,31.334,28.972,45.162,6.741,3.536-5.686,1.165-14.129-3.864-20.478-8.383-10.58-21.045-18.164-3.313-18.139,15.131.021,24.358,10,19.331,20.387-2.805,5.8-20.314,34.8,9.963,34.505,15.2-.148,14.815-11.215-.094-11.238-18.233-.025-9.985,11.223-36.287,11.185-32.933-.046-8.34-68-58.473-34.8C76.729,614.886,73.268,633.544,90.74,633.569Z" transform="translate(-79.787 -578.826)" fill="#e95a29"/>
</svg>
