<svg id="Group_38" data-name="Group 38" xmlns="http://www.w3.org/2000/svg" width="20.26" height="19.672" viewBox="0 0 20.26 19.672">
  <g id="Group_37" data-name="Group 37">
    <path id="Path_26" data-name="Path 26" d="M-3786.595,48.922h-19.971a4.267,4.267,0,0,1,2.045-5.444,15.456,15.456,0,0,1,11.079-1.685,25.251,25.251,0,0,1,4.107,1.372,7.057,7.057,0,0,1,1.819,1.268,2.709,2.709,0,0,1,.926,2.2C-3786.61,47.376-3786.595,48.118-3786.595,48.922Z" transform="translate(3806.849 -29.25)" fill="#242d2d"/>
    <path id="Path_27" data-name="Path 27" d="M-3798.568,43.839a5.034,5.034,0,0,1-5.04-5,5.02,5.02,0,0,1,5.05-5.037,5.019,5.019,0,0,1,5.011,5.018A5.04,5.04,0,0,1-3798.568,43.839Z" transform="translate(3808.79 -33.807)" fill="#242d2d"/>
  </g>
</svg>
